<svg width="30" height="30" viewBox="0 0 30 30" fill="none" xmlns="http://www.w3.org/2000/svg">
<path d="M5.33333 0H1.33333C0.979711 0 0.640572 0.140475 0.390523 0.390523C0.140475 0.640572 0 0.979711 0 1.33333V28C0 28.3536 0.140475 28.6928 0.390523 28.9428C0.640572 29.1929 0.979711 29.3333 1.33333 29.3333H5.33333V0Z" fill="#D6B1FF"/>
<path d="M8 29.3333H21.3333V0H8V29.3333ZM14.6667 24C14.313 24 13.9739 23.8595 13.7239 23.6095C13.4738 23.3594 13.3333 23.0203 13.3333 22.6667C13.3333 22.313 13.4738 21.9739 13.7239 21.7239C13.9739 21.4738 14.313 21.3333 14.6667 21.3333C15.0203 21.3333 15.3594 21.4738 15.6095 21.7239C15.8595 21.9739 16 22.313 16 22.6667C16 23.0203 15.8595 23.3594 15.6095 23.6095C15.3594 23.8595 15.0203 24 14.6667 24ZM14.6667 5.33333C15.0203 5.33333 15.3594 5.47381 15.6095 5.72386C15.8595 5.9739 16 6.31304 16 6.66667C16 7.02029 15.8595 7.35943 15.6095 7.60948C15.3594 7.85952 15.0203 8 14.6667 8C14.313 8 13.9739 7.85952 13.7239 7.60948C13.4738 7.35943 13.3333 7.02029 13.3333 6.66667C13.3333 6.31304 13.4738 5.9739 13.7239 5.72386C13.9739 5.47381 14.313 5.33333 14.6667 5.33333ZM14.6667 13.3333C15.0203 13.3333 15.3594 13.4738 15.6095 13.7239C15.8595 13.9739 16 14.313 16 14.6667C16 15.0203 15.8595 15.3594 15.6095 15.6095C15.3594 15.8595 15.0203 16 14.6667 16C14.313 16 13.9739 15.8595 13.7239 15.6095C13.4738 15.3594 13.3333 15.0203 13.3333 14.6667C13.3333 14.313 13.4738 13.9739 13.7239 13.7239C13.9739 13.4738 14.313 13.3333 14.6667 13.3333Z" fill="#8C30F5"/>
<path d="M28 0H24V29.3333H28C28.3536 29.3333 28.6928 29.1929 28.9428 28.9428C29.1929 28.6928 29.3333 28.3536 29.3333 28V1.33333C29.3333 0.979711 29.1929 0.640572 28.9428 0.390523C28.6928 0.140475 28.3536 0 28 0Z" fill="#2EC5CE"/>
</svg>
