<svg width="32" height="32" viewBox="0 0 32 32" fill="none" xmlns="http://www.w3.org/2000/svg">
<path d="M14.7538 0.175931L0.327179 6.91593C0.229619 6.96067 0.146971 7.0325 0.0890737 7.12288C0.0311767 7.21325 0.000470347 7.31836 0.000610831 7.42569C0.000751315 7.53302 0.0317312 7.63805 0.0898646 7.72827C0.147998 7.8185 0.230835 7.89011 0.328512 7.9346L14.8685 14.6253C15.2978 14.8226 15.7938 14.8226 16.2232 14.6253L30.7632 7.9346C30.8609 7.89024 30.9438 7.81873 31.0021 7.72859C31.0604 7.63844 31.0915 7.53345 31.0917 7.42612C31.092 7.31879 31.0615 7.21364 31.0037 7.12319C30.9459 7.03274 30.8633 6.9608 30.7658 6.91593L16.3378 0.175931C16.0899 0.0600563 15.8195 0 15.5458 0C15.2722 0 15.0018 0.0600563 14.7538 0.175931V0.175931Z" fill="#8C30F5"/>
<path opacity="0.64" d="M30.7659 15.568L27.7859 14.176C27.5725 14.0763 27.3399 14.0243 27.1043 14.0236C26.8688 14.0229 26.6359 14.0735 26.4219 14.172L16.2232 18.8653C16.0108 18.963 15.7797 19.0136 15.5459 19.0136C15.3121 19.0136 15.081 18.963 14.8686 18.8653L4.66857 14.172C4.45475 14.0737 4.22211 14.0232 3.9868 14.0239C3.75148 14.0246 3.51914 14.0765 3.30591 14.176L0.325904 15.568C0.228401 15.6128 0.145847 15.6848 0.088068 15.7752C0.0302888 15.8657 -0.000279049 15.9708 1.91962e-06 16.0782C0.000282888 16.1855 0.0314004 16.2905 0.0896524 16.3806C0.147904 16.4708 0.230836 16.5423 0.328572 16.5866L14.8686 23.276C15.0809 23.3742 15.312 23.4251 15.5459 23.4251C15.7798 23.4251 16.0109 23.3742 16.2232 23.276L30.7632 16.5866C30.861 16.5423 30.9439 16.4708 31.0022 16.3806C31.0604 16.2905 31.0915 16.1855 31.0918 16.0782C31.0921 15.9708 31.0615 15.8657 31.0037 15.7752C30.946 15.6848 30.8634 15.6128 30.7659 15.568Z" fill="#D6B1FF"/>
<path d="M30.7659 24.144L27.7859 22.752C27.5725 22.6522 27.3399 22.6002 27.1044 22.5995C26.8688 22.5989 26.6359 22.6495 26.4219 22.748L16.2233 27.44C16.0108 27.5376 15.7797 27.5882 15.5459 27.5882C15.3121 27.5882 15.081 27.5376 14.8686 27.44L4.66858 22.7466C4.45477 22.6484 4.22212 22.5978 3.98681 22.5985C3.7515 22.5992 3.51915 22.6511 3.30592 22.7506L0.325917 24.144C0.22879 24.189 0.146607 24.2609 0.0891031 24.3512C0.0315995 24.4415 0.00118614 24.5464 0.00146677 24.6535C0.00174739 24.7605 0.0327112 24.8653 0.0906875 24.9553C0.148664 25.0453 0.231223 25.1168 0.328585 25.1613L14.8686 31.852C15.2979 32.0493 15.7939 32.0493 16.2233 31.852L30.7633 25.1613C30.8606 25.1168 30.9432 25.0453 31.0012 24.9553C31.0591 24.8653 31.0901 24.7605 31.0904 24.6535C31.0906 24.5464 31.0602 24.4415 31.0027 24.3512C30.9452 24.2609 30.863 24.189 30.7659 24.144Z" fill="#2EC5CE"/>
</svg>
