<svg width="30" height="30" viewBox="0 0 30 30" fill="none" xmlns="http://www.w3.org/2000/svg">
<path d="M10.6667 12H1.33333C0.979711 12 0.640572 11.8595 0.390523 11.6095C0.140475 11.3594 0 11.0203 0 10.6667V1.33333C0 0.979711 0.140475 0.640572 0.390523 0.390523C0.640572 0.140475 0.979711 0 1.33333 0H10.6667C11.0203 0 11.3594 0.140475 11.6095 0.390523C11.8595 0.640572 12 0.979711 12 1.33333V10.6667C12 11.0203 11.8595 11.3594 11.6095 11.6095C11.3594 11.8595 11.0203 12 10.6667 12Z" fill="#8C30F5"/>
<path d="M10.6667 29.3333H1.33333C0.979711 29.3333 0.640572 29.1928 0.390523 28.9427C0.140475 28.6927 0 28.3535 0 27.9999V18.6666C0 18.313 0.140475 17.9738 0.390523 17.7238C0.640572 17.4737 0.979711 17.3333 1.33333 17.3333H10.6667C11.0203 17.3333 11.3594 17.4737 11.6095 17.7238C11.8595 17.9738 12 18.313 12 18.6666V27.9999C12 28.3535 11.8595 28.6927 11.6095 28.9427C11.3594 29.1928 11.0203 29.3333 10.6667 29.3333Z" fill="#8C30F5"/>
<path d="M16 1.33325H29.3333V3.99992H16V1.33325Z" fill="#2EC5CE"/>
<path d="M29.3333 18.6667H16V21.3334H29.3333V18.6667Z" fill="#2EC5CE"/>
<path d="M29.3333 25.3333H16V27.9999H29.3333V25.3333Z" fill="#D6B1FF"/>
<path d="M29.3333 8H16V10.6667H29.3333V8Z" fill="#D6B1FF"/>
</svg>
