<svg width="134" height="40" viewBox="0 0 134 40" fill="none" xmlns="http://www.w3.org/2000/svg">
<path fill-rule="evenodd" clip-rule="evenodd" d="M84.1041 12.227L81.9252 8.57296L78.0578 10.4L75.8789 6.73512L72.0114 8.57296L69.8435 4.89729L65.976 6.73512L63.7971 3.07026L59.9296 4.9081L57.7617 1.23242L53.8833 3.07026L45.6799 29.5784L55.6482 32.6054C56.0237 31.4106 56.8174 30.3885 57.8861 29.7238C58.9547 29.0591 60.2277 28.7957 61.475 28.9811C62.7223 29.1664 63.8616 29.7885 64.6871 30.7347C65.5126 31.681 65.9697 32.889 65.976 34.1405V34.2486C65.9978 34.7243 65.9433 35.2 65.8017 35.6757L75.9334 38.7567L84.1041 12.227V12.227Z" fill="#D61920"/>
<path fill-rule="evenodd" clip-rule="evenodd" d="M54.2319 27.3947C53.9799 27.3533 53.7512 27.2237 53.5873 27.0293C53.4234 26.8349 53.3352 26.5887 53.3386 26.3352V13.3622C53.3371 13.2199 53.3643 13.0786 53.4186 12.9468C53.4728 12.815 53.553 12.6953 53.6544 12.5946C53.7559 12.4939 53.8766 12.4143 54.0094 12.3605C54.1422 12.3067 54.2846 12.2797 54.428 12.2812H63.8734C64.4299 12.2797 64.9813 12.3871 65.496 12.5971C66.0107 12.8072 66.4787 13.1158 66.8732 13.5053C67.2678 13.8948 67.5811 14.3576 67.7954 14.8672C68.0097 15.3769 68.1207 15.9235 68.1222 16.4758V26.3352C68.1219 26.4944 68.0862 26.6516 68.0176 26.7956C67.949 26.9395 67.8492 27.0666 67.7253 27.1678C67.6015 27.269 67.4566 27.3418 67.3011 27.3811C67.1456 27.4203 66.9833 27.4249 66.8258 27.3947C66.5758 27.351 66.3496 27.2204 66.1879 27.0262C66.0262 26.8321 65.9395 26.5871 65.9433 26.3352V16.4866C65.9433 15.9418 65.7252 15.4193 65.337 15.0341C64.9489 14.6489 64.4224 14.4325 63.8734 14.4325H61.8144V26.3244C61.8152 26.4693 61.7867 26.6128 61.7306 26.7465C61.6744 26.8802 61.5918 27.0014 61.4875 27.1028C61.3635 27.2248 61.2115 27.3152 61.0445 27.366C60.8775 27.4169 60.7005 27.4267 60.5288 27.3947C60.2769 27.3533 60.0481 27.2237 59.8842 27.0293C59.7203 26.8349 59.6321 26.5887 59.6355 26.3352V14.4325H55.5175V26.3244C55.5185 26.4834 55.4841 26.6407 55.4169 26.7851C55.3496 26.9294 55.251 27.0573 55.1283 27.1595C55.0055 27.2617 54.8615 27.3358 54.7066 27.3764C54.5516 27.4171 54.3896 27.4233 54.2319 27.3947V27.3947ZM69.9415 33.0487C69.6876 33.0071 69.4575 32.8759 69.2933 32.6793C69.1292 32.4826 69.0421 32.2337 69.0482 31.9785C69.0494 31.6949 69.1629 31.4231 69.3641 31.2217C69.5653 31.018 69.8394 30.9014 70.1267 30.8974C71.0527 30.8974 71.848 30.3136 72.1095 29.4379L73.2316 25.7298L69.5602 13.546C69.5164 13.4098 69.5003 13.2662 69.5128 13.1238C69.5254 12.9813 69.5662 12.8427 69.6331 12.716C69.7 12.5893 69.7915 12.477 69.9024 12.3857C70.0134 12.2943 70.1414 12.2257 70.2792 12.1839C70.5537 12.1084 70.8468 12.1403 71.0982 12.2731C71.3496 12.4059 71.54 12.6293 71.6301 12.8974L74.3537 21.9785L77.1209 12.8974C77.2516 12.4001 77.8072 12.065 78.3737 12.1731L78.45 12.1839C79.0383 12.3677 79.3651 12.9839 79.1908 13.5568L75.4105 26.0541L74.2121 30.0541C73.9432 30.915 73.4099 31.6709 72.6869 32.2163C71.9514 32.7637 71.0569 33.0595 70.1376 33.0595C70.0721 33.0621 70.0064 33.0584 69.9415 33.0487" fill="#FEFEFE"/>
<path fill-rule="evenodd" clip-rule="evenodd" d="M3.35548 25.027H5.49077C6.05997 25.027 6.60586 24.8026 7.00834 24.4032C7.41083 24.0038 7.63694 23.4621 7.63694 22.8972V16.6594C7.63838 16.3797 7.58429 16.1025 7.47775 15.8435C7.37122 15.5846 7.21433 15.349 7.01605 15.1503C6.81777 14.9515 6.58198 14.7934 6.32214 14.6851C6.0623 14.5768 5.7835 14.5203 5.50166 14.5188H3.35548V25.0053V25.027ZM2.01548 27.254C1.75389 27.2101 1.51675 27.0749 1.34691 26.8726C1.17708 26.6704 1.08576 26.4145 1.08946 26.1513V6.7783C1.08754 6.63008 1.11546 6.48297 1.17158 6.3456C1.2277 6.20822 1.3109 6.08335 1.41629 5.9783C1.54381 5.84691 1.7019 5.74862 1.87666 5.69207C2.05143 5.63552 2.23752 5.62244 2.41857 5.65398C2.96329 5.76209 3.35548 6.21614 3.35548 6.76749V12.281H5.49077C6.06967 12.2796 6.64317 12.3915 7.17842 12.6104C7.71367 12.8292 8.20015 13.1507 8.61 13.5564C9.01985 13.9621 9.34503 14.4441 9.56689 14.9747C9.78876 15.5053 9.90296 16.0741 9.90296 16.6486V22.8864C9.90008 24.0439 9.43545 25.1531 8.61067 25.9716C7.78589 26.7901 6.66807 27.2511 5.50166 27.254H2.22247C2.14966 27.2583 2.0766 27.2546 2.00459 27.2432L2.01548 27.254Z" fill="#333545"/>
<path fill-rule="evenodd" clip-rule="evenodd" d="M17.5835 14.4324C17.4611 14.4112 17.3372 14.4003 17.2131 14.3999C16.9304 14.397 16.65 14.4502 16.3883 14.5562C16.1266 14.6622 15.8889 14.8189 15.689 15.0173C15.4891 15.2156 15.3311 15.4515 15.2243 15.7112C15.1175 15.9709 15.064 16.2492 15.0669 16.5297V23.027C15.0654 23.307 15.12 23.5846 15.2273 23.8437C15.3347 24.1027 15.4927 24.338 15.6923 24.5361C15.8918 24.7341 16.129 24.891 16.39 24.9975C16.6511 25.104 16.9308 25.1581 17.2131 25.1567C17.7823 25.1567 18.3282 24.9323 18.7306 24.5329C19.1331 24.1335 19.3592 23.5918 19.3592 23.027V16.5405C19.3592 15.4918 18.6075 14.6161 17.5835 14.4324V14.4324ZM16.4396 27.3513C15.4181 27.173 14.4929 26.6424 13.8272 25.8532C13.1615 25.0641 12.798 24.0669 12.8009 23.0378V16.5405C12.7989 15.9655 12.9126 15.3958 13.1352 14.8649C13.3578 14.334 13.6849 13.8525 14.0973 13.4486C14.5063 13.0428 14.9922 12.7211 15.5269 12.5022C16.0616 12.2833 16.6346 12.1714 17.2131 12.1729C18.3804 12.1729 19.4998 12.6331 20.3253 13.4521C21.1507 14.2712 21.6144 15.3821 21.6144 16.5405V23.0378C21.6144 24.2053 21.1568 25.308 20.3179 26.1405C19.9105 26.5455 19.4265 26.8667 18.8937 27.0856C18.3609 27.3045 17.7897 27.4168 17.2131 27.4161C16.9538 27.4172 16.695 27.3955 16.4396 27.3513V27.3513ZM29.2948 14.4432C29.1725 14.4219 29.0486 14.4111 28.9244 14.4107C28.6418 14.4079 28.3614 14.461 28.0997 14.567C27.838 14.673 27.6002 14.8297 27.4004 15.0281C27.2005 15.2264 27.0425 15.4624 26.9357 15.7221C26.8289 15.9817 26.7753 16.26 26.7783 16.5405V23.0378C26.7768 23.3178 26.8313 23.5954 26.9387 23.8545C27.046 24.1135 27.2041 24.3489 27.4036 24.5469C27.6032 24.745 27.8404 24.9018 28.1014 25.0083C28.3625 25.1148 28.6422 25.1689 28.9244 25.1675C29.2067 25.1689 29.4864 25.1148 29.7475 25.0083C30.0085 24.9018 30.2457 24.745 30.4452 24.5469C30.6448 24.3489 30.8028 24.1135 30.9102 23.8545C31.0175 23.5954 31.0721 23.3178 31.0706 23.0378V16.5405C31.0706 15.5026 30.3189 14.627 29.2948 14.4432V14.4432ZM28.1509 27.3513C27.1315 27.1707 26.2089 26.6392 25.5453 25.8502C24.8818 25.0613 24.5198 24.0654 24.5231 23.0378V16.5405C24.5249 15.9033 24.6667 15.2743 24.9387 14.6971C25.2107 14.12 25.6064 13.6087 26.0981 13.199C26.5898 12.7893 27.1657 12.4911 27.7856 12.325C28.4055 12.159 29.0544 12.1292 29.687 12.2378C30.7086 12.4135 31.6349 12.9415 32.3026 13.7286C32.9703 14.5158 33.3365 15.5116 33.3366 16.5405V23.0378C33.338 23.6153 33.223 24.1872 32.9985 24.72C32.774 25.2529 32.4445 25.7358 32.0293 26.1405C31.6219 26.5455 31.1379 26.8667 30.6051 27.0856C30.0723 27.3045 29.5011 27.4168 28.9244 27.4161C28.663 27.4161 28.4015 27.3945 28.1509 27.3513V27.3513ZM37.1605 27.3945C36.899 27.3507 36.6618 27.2154 36.492 27.0132C36.3221 26.8109 36.2308 26.5551 36.2345 26.2918V6.77831C36.2345 6.47561 36.3435 6.18372 36.5614 5.97831C36.6899 5.85242 36.8471 5.75917 37.0197 5.70647C37.1923 5.65377 37.3751 5.64318 37.5527 5.67561C38.0974 5.7621 38.5005 6.22696 38.5005 6.77831V18.3243L43.708 12.5297C43.9695 12.2486 44.3617 12.1189 44.7539 12.1837C44.9516 12.2166 45.1369 12.3014 45.2904 12.4293C45.4439 12.5573 45.5601 12.7237 45.6268 12.9114C45.6936 13.099 45.7084 13.3009 45.6698 13.4962C45.6313 13.6914 45.5407 13.8728 45.4075 14.0216L41.4747 18.3783L45.5383 25.7621C45.6114 25.8866 45.6588 26.0244 45.6775 26.1674C45.6962 26.3103 45.6859 26.4556 45.6472 26.5945C45.6051 26.7377 45.5341 26.871 45.4386 26.9862C45.3431 27.1014 45.2251 27.1962 45.0916 27.2648C44.8609 27.3964 44.5907 27.4424 44.329 27.3945C44.1662 27.3672 44.0115 27.3046 43.876 27.2112C43.7404 27.1178 43.6272 26.9958 43.5446 26.854L39.8841 20.1729L38.4896 21.6972V26.2918C38.4896 26.59 38.3703 26.876 38.1578 27.0868C37.9453 27.2977 37.6571 27.4161 37.3566 27.4161C37.2804 27.4161 37.215 27.4161 37.1387 27.3945H37.1605ZM87.0674 27.3837C86.4547 27.2819 85.8727 27.0456 85.3638 26.6921C84.8549 26.3386 84.432 25.8768 84.1259 25.3405C83.9762 25.0777 83.9371 24.7669 84.017 24.4756C84.1041 24.1945 84.2893 23.9567 84.5399 23.8053C84.7725 23.6792 85.0421 23.6372 85.3025 23.6864C85.6293 23.7405 85.9235 23.9351 86.0869 24.227C86.381 24.7243 86.8495 25.0486 87.4269 25.1459C87.7246 25.1972 88.0301 25.1811 88.3206 25.0987C88.6112 25.0163 88.8792 24.8698 89.1046 24.6702C89.5404 24.2702 89.7583 23.6972 89.7038 23.1351C89.6917 22.8469 89.6114 22.5656 89.4695 22.314C89.3275 22.0623 89.1279 21.8473 88.8867 21.6864L85.8363 19.5351C85.3393 19.1888 84.9254 18.7379 84.6241 18.2147C84.3228 17.6915 84.1416 17.1088 84.0932 16.508C84.0538 15.902 84.154 15.2949 84.3862 14.733C84.6183 14.1711 84.9764 13.669 85.4332 13.2648C85.8789 12.8537 86.4113 12.5462 86.9917 12.3648C87.5721 12.1834 88.186 12.1326 88.7887 12.2161C90.0742 12.4324 91.1201 13.1675 91.7192 14.2053C91.8636 14.4647 91.9011 14.7695 91.824 15.0557C91.7468 15.3419 91.5609 15.5873 91.3052 15.7405C91.0746 15.8721 90.8043 15.918 90.5427 15.8702C90.3799 15.8429 90.2252 15.7803 90.0896 15.6869C89.954 15.5934 89.8409 15.4715 89.7583 15.3297C89.6216 15.1003 89.4354 14.9038 89.2132 14.7543C88.9909 14.6047 88.738 14.5059 88.4727 14.4648C88.2013 14.416 87.9221 14.4307 87.6574 14.5077C87.3926 14.5846 87.1496 14.7217 86.9475 14.908C86.7502 15.0928 86.5963 15.3183 86.4965 15.5687C86.3967 15.819 86.3536 16.088 86.3701 16.3567C86.3919 16.8864 86.697 17.4053 87.1545 17.708L90.2049 19.8161C90.7227 20.1759 91.1509 20.6483 91.4568 21.1973C91.7626 21.7462 91.9381 22.3572 91.9698 22.9837C92.0203 23.6073 91.9235 24.2339 91.6871 24.8138C91.4507 25.3937 91.0812 25.9109 90.608 26.3243C90.1478 26.7486 89.5981 27.0658 88.9988 27.2528C88.3995 27.4398 87.7657 27.4919 87.1436 27.4053L87.0565 27.3837H87.0674ZM95.8155 27.4161C95.5538 27.3705 95.3166 27.2351 95.1454 27.0335C94.9741 26.832 94.8797 26.5771 94.8786 26.3134V6.79993C94.8771 6.65188 94.9054 6.50503 94.9619 6.36797C95.0183 6.23091 95.1017 6.10639 95.2072 6.0017C95.3127 5.897 95.4382 5.81424 95.5763 5.75825C95.7144 5.70226 95.8624 5.67417 96.0116 5.67561L96.2295 5.68642C96.7742 5.79453 97.1446 6.23777 97.1446 6.79993V12.3134H99.2908C99.8692 12.312 100.442 12.424 100.977 12.643C101.511 12.862 101.997 13.1836 102.406 13.5895C102.815 13.9953 103.139 14.4774 103.36 15.0079C103.581 15.5385 103.694 16.1071 103.692 16.681V26.3026C103.693 26.4659 103.658 26.6273 103.589 26.7755C103.52 26.9238 103.419 27.0551 103.293 27.1603C103.167 27.2655 103.02 27.342 102.861 27.3844C102.702 27.4267 102.536 27.4339 102.374 27.4053C101.829 27.308 101.437 26.8432 101.437 26.2918V16.6702C101.437 16.391 101.381 16.1146 101.273 15.8568C101.165 15.599 101.007 15.365 100.808 15.1681C100.608 14.9712 100.372 14.8153 100.111 14.7095C99.8509 14.6036 99.5721 14.5499 99.2908 14.5513H97.1446V26.3026C97.1458 26.467 97.1104 26.6295 97.0408 26.7787C96.9713 26.9278 96.8693 27.0598 96.7423 27.1652C96.6152 27.2706 96.4662 27.3468 96.306 27.3883C96.1458 27.4298 95.9783 27.4357 95.8155 27.4053V27.4161ZM111.373 14.454C111.064 14.3984 110.747 14.411 110.443 14.4909C110.14 14.5708 109.858 14.716 109.618 14.9162C109.378 15.1165 109.185 15.3668 109.053 15.6494C108.921 15.932 108.854 16.2399 108.856 16.5513V23.0486C108.855 23.3277 108.909 23.6044 109.015 23.8628C109.122 24.1211 109.279 24.356 109.478 24.5539C109.676 24.7518 109.912 24.9088 110.172 25.016C110.431 25.1231 110.71 25.1783 110.991 25.1783C111.558 25.1783 112.102 24.9621 112.506 24.5621C112.707 24.3644 112.867 24.1287 112.976 23.8687C113.084 23.6088 113.139 23.3299 113.137 23.0486V16.5405C113.137 15.5026 112.397 14.6161 111.362 14.4432L111.373 14.454ZM110.218 27.3405C109.199 27.1622 108.277 26.6328 107.613 25.8457C106.949 25.0585 106.587 24.0641 106.59 23.0378V16.5405C106.59 15.9024 106.731 15.2721 107.002 14.6937C107.273 14.1152 107.669 13.6026 108.161 13.1917C108.653 12.7808 109.229 12.4816 109.85 12.3149C110.47 12.1483 111.12 12.1183 111.754 12.227C112.777 12.403 113.705 12.9326 114.373 13.722C115.041 14.5114 115.406 15.5097 115.403 16.5405V23.0378C115.404 23.6135 115.289 24.1836 115.064 24.7146C114.84 25.2455 114.511 25.7266 114.096 26.1297C113.596 26.6276 112.983 26.9979 112.307 27.2087C111.632 27.4196 110.915 27.4648 110.218 27.3405" fill="#333545"/>
<path fill-rule="evenodd" clip-rule="evenodd" d="M132.802 13.5567C132.839 13.4194 132.848 13.2761 132.83 13.1352C132.811 12.9942 132.764 12.8582 132.693 12.7351C132.61 12.6039 132.502 12.4904 132.375 12.4012C132.248 12.3121 132.104 12.2492 131.952 12.2162C131.671 12.1635 131.38 12.2192 131.14 12.3719C130.899 12.5246 130.725 12.7628 130.655 13.0378C130.655 13.0919 129.435 17.9676 128.477 21.6757L128.455 21.7513L128.433 21.6757L126.254 13.0486C126.212 12.838 126.106 12.6453 125.95 12.4964C125.794 12.3476 125.596 12.2497 125.383 12.2162C125.318 12.2036 125.252 12.1963 125.187 12.1946C124.685 12.1946 124.25 12.5405 124.108 13.0378C124.097 13.0919 122.877 17.9676 121.929 21.6757L121.907 21.7513L121.886 21.6757C120.96 17.9676 119.707 13.0919 119.707 13.0378C119.655 12.8309 119.545 12.6432 119.388 12.4974C119.231 12.3516 119.036 12.2539 118.824 12.2162C118.643 12.1844 118.456 12.1978 118.282 12.2552C118.107 12.3127 117.949 12.4124 117.823 12.5453C117.696 12.6782 117.605 12.8403 117.557 13.0168C117.51 13.1934 117.507 13.3789 117.55 13.5567L120.829 26.5621C120.891 26.8005 121.03 27.012 121.225 27.1644C121.42 27.3167 121.659 27.4014 121.907 27.4054C122.441 27.4054 122.866 27.0594 122.975 26.5621L125.154 17.9243L125.187 17.8486L125.208 17.9243C126.167 21.6757 127.387 26.573 127.387 26.573C127.452 26.8067 127.591 27.0136 127.783 27.1634C127.975 27.3132 128.211 27.398 128.455 27.4054C128.706 27.4132 128.952 27.3329 129.149 27.1786C129.346 27.0244 129.482 26.8061 129.533 26.5621L132.802 13.5567V13.5567Z" fill="#333545"/>
</svg>
